# xmcd CD database file
#
# Track frame offsets:
#	150
#	19157
#	40225
#	52680
#	70497
#	88175
#	104090
#	124247
#	143085
#	152972
#	173080
#	191327
#	201155
#
# Disc length: 2938 seconds
#
# Revision: 0
# Processed by: cddbd v1.5.1PL0 Copyright (c) Steve Scherf et al.
# Submitted via: CDex 1.51
#
DISCID=b70b780d
DTITLE=Nicki Leighton-Thomas - Damned If I Do
DYEAR=1997
DGENRE=Jazz
TTITLE0=Nicky's Dilemma
TTITLE1=Forbidden Games
TTITLE2=I'm Not Taking Any Chances
TTITLE3=Scars
TTITLE4=In A New York Minute
TTITLE5=Only Why No More
TTITLE6=Living In Overdrive
TTITLE7=Tomorrow Never Comes
TTITLE8=Music Reaches Places
TTITLE9=Waiter The Check
TTITLE10=Every Now And Then
TTITLE11=Love's Eyes
TTITLE12=Down
EXTD=YEAR: 1997
EXTT0=
EXTT1=
EXTT2=
EXTT3=
EXTT4=
EXTT5=
EXTT6=
EXTT7=
EXTT8=
EXTT9=
EXTT10=
EXTT11=
EXTT12=
PLAYORDER=
